<?xml version="1.0" encoding="UTF-8"?><svg id="uuid-986b53c6-06ed-43d9-8b18-7e97f3e5361e" xmlns="http://www.w3.org/2000/svg" xmlns:xlink="http://www.w3.org/1999/xlink" viewBox="0 0 100 100.02"><defs><style>.uuid-cf34e910-788c-4e3c-bcab-ed07b219aca8{fill:url(#uuid-2c91e18e-bd35-4b8b-bdc6-e3f0388e6380);}.uuid-5bb8c064-9a43-4569-a379-d7134e01bcf4{fill:url(#uuid-671766da-3b99-445b-bb1a-4408ac6e8674);}.uuid-05c59980-bdb5-470e-a14c-3cd560114438{fill:url(#uuid-eb01d0dc-df2c-4b20-9bda-f4db237e0b7d);}.uuid-dbc86509-9643-4962-ad00-ab245178f585{fill:url(#uuid-96f6f88b-69a5-4afb-9ad9-81610f5c4b52);}.uuid-a92ffa0e-cd39-4fef-94ee-bd4aa9990014{fill:url(#uuid-b383ff08-95a9-4d63-90a2-c14a1445e892);}.uuid-33d01100-d88b-4c4a-ac75-263853e30a90{fill:url(#uuid-92740efc-61cd-421f-9c46-e41b2c20ae6d);}.uuid-801f3a24-7fc5-47ec-8b2a-eb99ba2b67e9{fill:url(#uuid-3003b9c9-64b9-41d9-b2e0-9db794fa53ca);}</style><linearGradient id="uuid-671766da-3b99-445b-bb1a-4408ac6e8674" x1="50" y1="100.01" x2="50" y2=".01" gradientUnits="userSpaceOnUse"><stop offset="0" stop-color="#f9e368"/><stop offset=".05" stop-color="#edd673"/><stop offset=".29" stop-color="#bca1a5"/><stop offset=".51" stop-color="#9578cb"/><stop offset=".71" stop-color="#795ae7"/><stop offset=".88" stop-color="#6948f8"/><stop offset="1" stop-color="#6342ff"/></linearGradient><linearGradient id="uuid-92740efc-61cd-421f-9c46-e41b2c20ae6d" x1="809.69" y1="-76.66" x2="809.69" y2="-100.45" gradientTransform="translate(112.07 853.98) rotate(-90)" gradientUnits="userSpaceOnUse"><stop offset="0" stop-color="#fbec9b"/><stop offset=".18" stop-color="#f7e485"/><stop offset=".55" stop-color="#eed04d"/><stop offset="1" stop-color="#e2b703"/></linearGradient><linearGradient id="uuid-b383ff08-95a9-4d63-90a2-c14a1445e892" x1="6.81" y1="100.02" x2="6.81" y2="11.17" gradientUnits="userSpaceOnUse"><stop offset="0" stop-color="#6342ff"/><stop offset=".09" stop-color="#6645f8"/><stop offset=".22" stop-color="#714fe6"/><stop offset=".37" stop-color="#8260c8"/><stop offset=".53" stop-color="#9a789e"/><stop offset=".71" stop-color="#b99669"/><stop offset=".9" stop-color="#dfba29"/><stop offset="1" stop-color="#f5d004"/></linearGradient><linearGradient id="uuid-96f6f88b-69a5-4afb-9ad9-81610f5c4b52" x1="847.17" y1="-62.41" x2="847.17" y2="-112.07" gradientTransform="translate(-822.34 94.05)" gradientUnits="userSpaceOnUse"><stop offset="0" stop-color="#f5d004"/><stop offset="1" stop-color="#fdf6cd"/></linearGradient><linearGradient id="uuid-eb01d0dc-df2c-4b20-9bda-f4db237e0b7d" x1="60.71" y1="105.92" x2="60.71" y2="10.04" xlink:href="#uuid-b383ff08-95a9-4d63-90a2-c14a1445e892"/><linearGradient id="uuid-2c91e18e-bd35-4b8b-bdc6-e3f0388e6380" x1="77.15" y1="50.52" x2="77.15" y2="0" gradientUnits="userSpaceOnUse"><stop offset=".03" stop-color="#6342ff"/><stop offset=".07" stop-color="#6645f8"/><stop offset=".12" stop-color="#7150e5"/><stop offset=".18" stop-color="#8361c7"/><stop offset=".25" stop-color="#9c799c"/><stop offset=".33" stop-color="#bc9865"/><stop offset=".4" stop-color="#e2bd24"/><stop offset=".44" stop-color="#f5d004"/><stop offset="1" stop-color="#fdf6cd"/></linearGradient><linearGradient id="uuid-3003b9c9-64b9-41d9-b2e0-9db794fa53ca" x1="69.83" y1="101" x2="91.32" y2="41.96" gradientUnits="userSpaceOnUse"><stop offset="0" stop-color="#4830f2"/><stop offset=".11" stop-color="#523ae9"/><stop offset=".31" stop-color="#6e56d4"/><stop offset=".56" stop-color="#9b84b0"/><stop offset=".86" stop-color="#dac380"/><stop offset="1" stop-color="#f9e368"/></linearGradient></defs><g id="uuid-18629487-c361-4346-ae51-50f46d3d4b42"><g id="uuid-f6db3e19-1367-47cf-b770-4705c1b04243"><g><rect class="uuid-5bb8c064-9a43-4569-a379-d7134e01bcf4" x="0" y=".01" width="100" height="100"/><g><rect class="uuid-33d01100-d88b-4c4a-ac75-263853e30a90" x="11.62" y="37.48" width="23.79" height="13.62"/><rect class="uuid-a92ffa0e-cd39-4fef-94ee-bd4aa9990014" y="11.17" width="13.62" height="88.86"/><rect class="uuid-dbc86509-9643-4962-ad00-ab245178f585" x="18.02" y="-18.02" width="13.62" height="49.65" transform="translate(18.02 31.64) rotate(-90)"/></g><rect class="uuid-05c59980-bdb5-470e-a14c-3cd560114438" x="54.31" y="10.12" width="12.81" height="89.88"/><path class="uuid-cf34e910-788c-4e3c-bcab-ed07b219aca8" d="m100,13.08c-3.5-6.55-10.07-11.89-20.08-12.91l-.63-.06-2.1-.1h-22.88v12.36h22.88v.02c10.09.3,13.69,7.05,13.69,12.85,0,3.37-1.21,6.49-3.4,8.79-2.33,2.44-5.76,3.83-9.92,4.04l-10.43.2,4.36,12.26h6.27c7.48-.24,13.69-2.89,18.45-7.87,1.5-1.57,2.77-3.33,3.79-5.22V13.08Z"/><path class="uuid-801f3a24-7fc5-47ec-8b2a-eb99ba2b67e9" d="m100,49.98c-5.3-6.91-13.84-11.73-25.48-11.73h-7.4v12.41h7.4c13.53,0,19.59,9.29,19.59,18.48s-5.85,18.14-18.89,18.46h0s-.7.02-.7.02h-7.39v12.4h8.1s.93,0,.93,0l.35-.04c9.15-.44,16.86-3.97,22.31-10.2.42-.47.81-.97,1.19-1.47v-38.34Z"/></g></g></g></svg>